<svg width="11" height="11" viewBox="0 0 11 11" fill="none" xmlns="http://www.w3.org/2000/svg">
<path d="M5.6958 10.6309C6.11001 10.6309 6.4458 10.351 6.4458 10.0059V6.38086H10.0708C10.416 6.38086 10.6958 6.04507 10.6958 5.63086C10.6958 5.21665 10.416 4.88086 10.0708 4.88086H6.4458V1.25586C6.4458 0.910681 6.11001 0.630859 5.6958 0.630859C5.28159 0.630859 4.9458 0.910681 4.9458 1.25586V4.88086H1.3208C0.975623 4.88086 0.695801 5.21665 0.695801 5.63086C0.695801 6.04507 0.975623 6.38086 1.3208 6.38086H4.9458V10.0059C4.9458 10.351 5.28159 10.6309 5.6958 10.6309Z" fill="black"/>
</svg>
