<svg width="17" height="17" viewBox="0 0 17 17" fill="none" xmlns="http://www.w3.org/2000/svg">
<path d="M13.7867 10.5654C13.7867 10.1637 14.1123 9.83813 14.514 9.83813C14.9156 9.83813 15.2413 10.1637 15.2413 10.5654V14.449C15.2413 15.654 14.2644 16.6309 13.0594 16.6309H2.87762C1.67263 16.6309 0.695801 15.654 0.695801 14.449V4.26722C0.695801 3.06224 1.67263 2.0854 2.87762 2.0854H6.76126C7.16292 2.0854 7.48853 2.41102 7.48853 2.81268C7.48853 3.21434 7.16292 3.53995 6.76126 3.53995H2.87762C2.47596 3.53995 2.15035 3.86556 2.15035 4.26722V14.449C2.15035 14.8507 2.47596 15.1763 2.87762 15.1763H13.0594C13.4611 15.1763 13.7867 14.8507 13.7867 14.449V10.5654ZM6.51398 8.93211V10.8127H8.39455L14.94 4.26722L13.0594 2.38665L6.51398 8.93211ZM13.5737 0.843873L16.4828 3.75296C16.7668 4.03698 16.7668 4.49747 16.4828 4.78148L9.21006 12.0542C9.07367 12.1906 8.88869 12.2672 8.6958 12.2672H5.78671C5.38505 12.2672 5.05944 11.9416 5.05944 11.54V8.63086C5.05944 8.43797 5.13606 8.25299 5.27245 8.1166L12.5452 0.843873C12.8292 0.559855 13.2897 0.559855 13.5737 0.843873Z" fill="#0047FF"/>
</svg>
