<svg width="17" height="14" viewBox="0 0 17 14" fill="none" xmlns="http://www.w3.org/2000/svg">
<path d="M12.4932 13.4844C12.6965 13.6797 13.0262 13.6797 13.2296 13.4844L16.5433 10.3024C16.7466 10.1072 16.7466 9.79059 16.5433 9.59533C16.3399 9.40006 16.0103 9.40006 15.8069 9.59533L13.3821 11.9238L13.3821 1.13086C13.3821 0.854716 13.149 0.630859 12.8614 0.630859C12.5738 0.630859 12.3407 0.854716 12.3407 1.13086L12.3407 11.9238L9.91585 9.59533C9.7125 9.40006 9.38281 9.40006 9.17947 9.59533C8.97612 9.79059 8.97612 10.1072 9.17947 10.3024L12.4932 13.4844Z" fill="black"/>
<path d="M4.89841 0.777305C4.69507 0.582043 4.36538 0.582043 4.16203 0.777305L0.848311 3.95929C0.644964 4.15455 0.644964 4.47113 0.848311 4.66639C1.05166 4.86165 1.38135 4.86165 1.58469 4.66639L4.00952 2.33797L4.00952 13.1309C4.00952 13.407 4.24265 13.6309 4.53022 13.6309C4.8178 13.6309 5.05092 13.407 5.05092 13.1309L5.05092 2.33797L7.47575 4.66639C7.6791 4.86165 8.00879 4.86165 8.21213 4.66639C8.41548 4.47113 8.41548 4.15455 8.21213 3.95929L4.89841 0.777305Z" fill="black"/>
<path d="M12.4932 13.4844C12.6965 13.6797 13.0262 13.6797 13.2296 13.4844L16.5433 10.3024C16.7466 10.1072 16.7466 9.79059 16.5433 9.59533C16.3399 9.40006 16.0103 9.40006 15.8069 9.59533L13.3821 11.9238L13.3821 1.13086C13.3821 0.854716 13.149 0.630859 12.8614 0.630859C12.5738 0.630859 12.3407 0.854716 12.3407 1.13086L12.3407 11.9238L9.91585 9.59533C9.7125 9.40006 9.38281 9.40006 9.17947 9.59533C8.97612 9.79059 8.97612 10.1072 9.17947 10.3024L12.4932 13.4844Z" stroke="black" stroke-width="0.25"/>
<path d="M4.89841 0.777305C4.69507 0.582043 4.36538 0.582043 4.16203 0.777305L0.848311 3.95929C0.644964 4.15455 0.644964 4.47113 0.848311 4.66639C1.05166 4.86165 1.38135 4.86165 1.58469 4.66639L4.00952 2.33797L4.00952 13.1309C4.00952 13.407 4.24265 13.6309 4.53022 13.6309C4.8178 13.6309 5.05092 13.407 5.05092 13.1309L5.05092 2.33797L7.47575 4.66639C7.6791 4.86165 8.00879 4.86165 8.21213 4.66639C8.41548 4.47113 8.41548 4.15455 8.21213 3.95929L4.89841 0.777305Z" stroke="black" stroke-width="0.25"/>
</svg>
