<svg width="15" height="17" viewBox="0 0 15 17" fill="none" xmlns="http://www.w3.org/2000/svg">
<path d="M4.1958 3.53995V2.81268C4.1958 1.60769 5.136 0.630859 6.2958 0.630859H9.0958C10.2556 0.630859 11.1958 1.60769 11.1958 2.81268V3.53995H13.9958C14.3824 3.53995 14.6958 3.86556 14.6958 4.26722C14.6958 4.66888 14.3824 4.9945 13.9958 4.9945H13.2958V14.449C13.2958 15.654 12.3556 16.6309 11.1958 16.6309H4.1958C3.036 16.6309 2.0958 15.654 2.0958 14.449V4.9945H1.3958C1.0092 4.9945 0.695801 4.66888 0.695801 4.26722C0.695801 3.86556 1.0092 3.53995 1.3958 3.53995H4.1958ZM5.5958 3.53995H9.7958V2.81268C9.7958 2.41102 9.4824 2.0854 9.0958 2.0854H6.2958C5.9092 2.0854 5.5958 2.41102 5.5958 2.81268V3.53995ZM11.8958 4.9945H3.4958V14.449C3.4958 14.8507 3.8092 15.1763 4.1958 15.1763H11.1958C11.5824 15.1763 11.8958 14.8507 11.8958 14.449V4.9945Z" fill="red"/>
</svg>
